<svg id="visual" viewBox="0 0 900 900" width="900" height="900" xmlns="http://www.w3.org/2000/svg" xmlns:xlink="http://www.w3.org/1999/xlink" version="1.1"><rect x="0" y="0" width="900" height="900" fill="#001220"></rect><defs><linearGradient id="grad1_0" x1="0%" y1="0%" x2="100%" y2="100%"><stop offset="30%" stop-color="#fbae3c" stop-opacity="1"></stop><stop offset="70%" stop-color="#fbae3c" stop-opacity="1"></stop></linearGradient></defs><defs><linearGradient id="grad1_1" x1="0%" y1="0%" x2="100%" y2="100%"><stop offset="30%" stop-color="#fbae3c" stop-opacity="1"></stop><stop offset="70%" stop-color="#96446e" stop-opacity="1"></stop></linearGradient></defs><defs><linearGradient id="grad1_2" x1="0%" y1="0%" x2="100%" y2="100%"><stop offset="30%" stop-color="#001220" stop-opacity="1"></stop><stop offset="70%" stop-color="#96446e" stop-opacity="1"></stop></linearGradient></defs><defs><linearGradient id="grad2_0" x1="0%" y1="0%" x2="100%" y2="100%"><stop offset="30%" stop-color="#fbae3c" stop-opacity="1"></stop><stop offset="70%" stop-color="#fbae3c" stop-opacity="1"></stop></linearGradient></defs><defs><linearGradient id="grad2_1" x1="0%" y1="0%" x2="100%" y2="100%"><stop offset="30%" stop-color="#96446e" stop-opacity="1"></stop><stop offset="70%" stop-color="#fbae3c" stop-opacity="1"></stop></linearGradient></defs><defs><linearGradient id="grad2_2" x1="0%" y1="0%" x2="100%" y2="100%"><stop offset="30%" stop-color="#96446e" stop-opacity="1"></stop><stop offset="70%" stop-color="#001220" stop-opacity="1"></stop></linearGradient></defs><g transform="translate(900, 0)"><path d="M0 445.5C-74.2 428.1 -148.4 410.8 -217 375.9C-285.6 340.9 -348.6 288.3 -385.8 222.7C-422.9 157.2 -434.2 78.6 -445.5 0L0 0Z" fill="#3d3056"></path><path d="M0 297C-49.5 285.4 -98.9 273.9 -144.7 250.6C-190.4 227.3 -232.4 192.2 -257.2 148.5C-282 104.8 -289.5 52.4 -297 0L0 0Z" fill="#e1685e"></path><path d="M0 148.5C-24.7 142.7 -49.5 136.9 -72.3 125.3C-95.2 113.6 -116.2 96.1 -128.6 74.2C-141 52.4 -144.7 26.2 -148.5 0L0 0Z" fill="#fbae3c"></path></g><g transform="translate(0, 900)"><path d="M0 -445.5C75.8 -430.9 151.6 -416.4 220 -381.1C288.4 -345.7 349.4 -289.7 385.8 -222.7C422.1 -155.8 433.8 -77.9 445.5 0L0 0Z" fill="#3d3056"></path><path d="M0 -297C50.5 -287.3 101.1 -277.6 146.7 -254C192.3 -230.5 233 -193.1 257.2 -148.5C281.4 -103.8 289.2 -51.9 297 0L0 0Z" fill="#e1685e"></path><path d="M0 -148.5C25.3 -143.6 50.5 -138.8 73.3 -127C96.1 -115.2 116.5 -96.6 128.6 -74.2C140.7 -51.9 144.6 -26 148.5 0L0 0Z" fill="#fbae3c"></path></g></svg>